nColumns=19
nRows=121
DataType=double
version=3
OpenSimVersion=4.1
endheader
time	ground_force_1_vx	ground_force_1_vy	ground_force_1_vz	ground_force_1_px	ground_force_1_py	ground_force_1_pz	ground_force_1_mx	ground_force_1_my	ground_force_1_mz	ground_force_2_vx	ground_force_2_vy	ground_force_2_vz	ground_force_2_px	ground_force_2_py	ground_force_2_pz	ground_force_2_mx	ground_force_2_my	ground_force_2_mz
2.55	0	0	0	-0.00260426	0	0.00155967	0	0	0	-238.299	1576.33	-0.277133	1.01203	0	-0.631392	-0	3.64072	-0
2.55833	0	0	0	-0.00260422	0	0.00155972	0	0	0	-182.449	1724.26	-0.18294	0.978681	0	-0.63256	-0	2.36659	-0
2.56667	0	0	0	-0.00260417	0	0.00155977	0	0	0	-127.499	1822.16	-3.83713	0.947979	0	-0.633482	-0	1.21863	-0
2.575	0	0	0	-0.00260412	0	0.00155982	0	0	0	-87.361	1871.38	-3.84833	0.921531	0	-0.634024	-0	0.252454	-0
2.58333	0	0	0	-0.00260407	0	0.00155986	0	0	0	-57.8024	1875.39	-0.751295	0.896843	0	-0.634592	0	-0.50691	0
2.59167	0	0	0	-0.00260402	0	0.00155991	0	0	0	-25.4617	1841.88	0.809553	0.870067	0	-0.635677	0	-1.01164	0
2.6	0	0	0	-0.00260397	0	0.00155996	0	0	0	11.1981	1783.36	-0.816526	0.841134	0	-0.636995	0	-1.18953	0
2.60833	0	0	0	-0.00260392	0	0.00156001	0	0	0	44.2658	1705.77	-4.56476	0.812734	0	-0.637758	0	-0.976285	0
2.61667	0	0	0	-0.00260387	0	0.00156007	0	0	0	73.879	1604.33	-10.7754	0.784958	0	-0.637721	0	-0.361291	0
2.625	0	0	0	-0.00260382	0	0.00156012	0	0	0	112.915	1473.57	-20.9348	0.753162	0	-0.637177	-0	0.568106	-0
2.63333	0	0	0	-0.00260377	0	0.00156017	0	0	0	165.618	1314.29	-33.9433	0.714218	0	-0.636151	-0	1.61011	-0
2.64167	0	0	0	-0.00260371	0	0.00156023	0	0	0	214.373	1136.06	-45.2694	0.672738	0	-0.63477	-0	2.48755	-0
2.65	0	0	0	-0.00260366	0	0.00156028	0	0	0	236.136	950.973	-50.2763	0.636732	0	-0.633599	-0	2.93946	-0
2.65833	0	0	0	-0.00260361	0	0.00156034	0	0	0	226.223	762.1	-47.6181	0.608353	0	-0.632844	-0	2.82173	-0
2.66667	0	0	0	-0.00260355	0	0.00156039	0	0	0	197.598	569.187	-39.4741	0.582038	0	-0.632186	-0	2.16372	-0
2.675	0	0	0	-0.00260349	0	0.00156045	0	0	0	158.924	383.585	-29.0584	0.553575	0	-0.631554	-0	1.15502	-0
2.68333	0	0	0	-0.00260344	0	0.00156051	0	0	0	113.004	228.229	-18.3579	0.528021	0	-0.630733	-0	0.076498	-0
2.69167	0	0	0	-0.00260338	0	0.00156056	0	0	0	67.305	119.935	-8.39275	0.523209	0	-0.627371	0	-0.790996	0
2.7	0	0	0	-0.00260332	0	0.00156062	0	0	0	31.4856	58.2425	-0.681394	0.580194	0	-0.618872	0	-1.25063	0
2.70833	0	0	0	-0.00260326	0	0.00156068	0	0	0	10.6394	28.6478	3.17921	0.708684	0	-0.611838	0	-1.24481	0
2.71667	0	0	0	-0.0026032	0	0.00156074	0	0	0	1.95155	14.0918	3.4982	0.737542	0	-0.609596	0	-0.86297	0
2.725	0	0	0	-0.00260314	0	0.0015608	0	0	0	0	0	0	-0.00260338	0	0.00156021	0	0	0
2.73333	0	0	0	-0.00260308	0	0.00156086	0	0	0	0	0	0	-0.00260332	0	0.00156028	0	0	0
2.74167	0	0	0	-0.00260302	0	0.00156093	0	0	0	0	0	0	-0.00260326	0	0.00156034	0	0	0
2.75	0	0	0	-0.00260296	0	0.00156099	0	0	0	0	0	0	-0.0026032	0	0.00156041	0	0	0
2.75833	0	0	0	-0.0026029	0	0.00156105	0	0	0	0	0	0	-0.00260313	0	0.00156048	0	0	0
2.76667	0	0	0	-0.00260283	0	0.00156111	0	0	0	0	0	0	-0.00260307	0	0.00156054	0	0	0
2.775	0	0	0	-0.00260277	0	0.00156118	0	0	0	0	0	0	-0.002603	0	0.00156061	0	0	0
2.78333	0	0	0	-0.00260271	0	0.00156124	0	0	0	0	0	0	-0.00260294	0	0.00156068	0	0	0
2.79167	-3.42002	14.4106	-0.0456511	1.00625	0	-0.620015	-0	5.99511	-0	0	0	0	-0.00260287	0	0.00156075	0	0	0
2.8	-5.53171	40.1648	-4.06946	1.10352	0	-0.635225	-0	8.00858	-0	0	0	0	-0.0026028	0	0.00156082	0	0	0
2.80833	-13.4245	121.263	-8.62167	1.13627	0	-0.640462	-0	9.72367	-0	0	0	0	-0.00260274	0	0.00156089	0	0	0
2.81667	-31.81	308.387	-10.8293	1.14402	0	-0.645941	-0	10.6514	-0	0	0	0	-0.00260267	0	0.00156096	0	0	0
2.825	-64.4299	609.047	-6.48111	1.13916	0	-0.650857	-0	10.4406	-0	0	0	0	-0.0026026	0	0.00156103	0	0	0
2.83333	-107.117	919.644	8.0989	1.12885	0	-0.654558	-0	9.03381	-0	0	0	0	-0.00260253	0	0.0015611	0	0	0
2.84167	-151.485	1104.04	31.4583	1.11751	0	-0.656831	-0	6.72651	-0	0	0	0	-0.00260246	0	0.00156117	0	0	0
2.85	-200.663	1164.57	55.0722	1.10534	0	-0.657531	-0	4.08343	-0	0	0	0	-0.00260239	0	0.00156125	0	0	0
2.85833	-247.15	1213.75	69.3059	1.08734	0	-0.65728	-0	1.74041	-0	0	0	0	-0.00260232	0	0.00156132	0	0	0
2.86667	-259.731	1320.85	71.6351	1.05873	0	-0.657069	-0	0.193128	-0	0	0	0	-0.00260225	0	0.00156139	0	0	0
2.875	-230.8	1475.18	67.2279	1.02342	0	-0.656913	0	-0.325599	0	0	0	0	-0.00260218	0	0.00156147	0	0	0
2.88333	-186.193	1628.7	62.1155	0.989765	0	-0.65615	-0	0.150434	-0	0	0	0	-0.00260211	0	0.00156154	0	0	0
2.89167	-144.503	1741.05	57.7421	0.959807	0	-0.654626	-0	1.39016	-0	0	0	0	-0.00260204	0	0.00156162	0	0	0
2.9	-105.251	1805.73	52.1768	0.930499	0	-0.65286	-0	3.04643	-0	0	0	0	-0.00260197	0	0.00156169	0	0	0
2.90833	-62.7548	1833	44.5668	0.900211	0	-0.651214	-0	4.72419	-0	0	0	0	-0.00260189	0	0.00156177	0	0	0
2.91667	-18.0616	1828.9	36.7794	0.869751	0	-0.649633	-0	6.04433	-0	0	0	0	-0.00260182	0	0.00156185	0	0	0
2.925	22.6874	1795.88	31.3259	0.84006	0	-0.648122	-0	6.71109	-0	0	0	0	-0.00260175	0	0.00156192	0	0	0
2.93333	60.3891	1734.81	29.2618	0.810369	0	-0.647008	-0	6.57155	-0	0	0	0	-0.00260167	0	0.001562	0	0	0
2.94167	102.699	1641.74	30.4438	0.778234	0	-0.646515	-0	5.6473	-0	0	0	0	-0.0026016	0	0.00156208	0	0	0
2.95	155.28	1513.74	34.5026	0.74172	0	-0.646542	-0	4.12766	-0	0	0	0	-0.00260152	0	0.00156216	0	0	0
2.95833	213.089	1357.61	40.4491	0.702956	0	-0.647053	-0	2.32555	-0	0	0	0	-0.00260145	0	0.00156223	0	0	0
2.96667	258.686	1182.23	46.0164	0.666442	0	-0.647949	-0	0.604033	-0	0	0	0	-0.00260137	0	0.00156231	0	0	0
2.975	278.776	989.69	48.5355	0.632954	0	-0.648672	0	-0.711662	0	0	0	0	-0.0026013	0	0.00156239	0	0	0
2.98333	273.439	783.873	46.5586	0.601417	0	-0.648801	0	-1.41189	0	0	0	0	-0.00260122	0	0.00156247	0	0	0
2.99167	247.24	578.413	40.4308	0.572409	0	-0.648435	0	-1.44431	0	0	0	0	-0.00260115	0	0.00156255	0	0	0
3	202.61	390.936	31.6007	0.545357	0	-0.647329	0	-0.907274	0	0	0	0	-0.00260107	0	0.00156263	0	0	0
3.00833	144.784	236.771	21.8506	0.518761	0	-0.64466	0	-0.002356	0	0	0	0	-0.00260099	0	0.00156271	0	0	0
3.01667	86.3049	125.542	13.1491	0.497165	0	-0.640281	-0	1.03365	-0	0	0	0	-0.00260092	0	0.00156279	0	0	0
3.025	40.8254	56.94	7.30755	0.492755	0	-0.632304	-0	1.99463	-0	0	0	0	-0.00260084	0	0.00156287	0	0	0
3.03333	15.1363	23.1983	4.81469	0.537383	0	-0.610242	-0	2.74943	-0	0	0	0	-0.00260076	0	0.00156295	0	0	0
3.04167	5.38594	12.5808	4.30566	0.711218	0	-0.590986	-0	3.25202	-0	0	0	0	-0.00260068	0	0.00156303	0	0	0
3.05	1.96373	10.7351	3.95652	0.840694	0	-0.612301	-0	3.51884	-0	0	0	0	-0.00260061	0	0.00156311	0	0	0
3.05833	0	0	0	-0.00260035	0	0.00156362	0	0	0	0	0	0	-0.00260053	0	0.00156319	0	0	0
3.06667	0	0	0	-0.00260028	0	0.0015637	0	0	0	0	0	0	-0.00260045	0	0.00156328	0	0	0
3.075	0	0	0	-0.0026002	0	0.00156377	0	0	0	0	0	0	-0.00260037	0	0.00156336	0	0	0
3.08333	0	0	0	-0.00260012	0	0.00156385	0	0	0	0	0	0	-0.00260029	0	0.00156344	0	0	0
3.09167	0	0	0	-0.00260005	0	0.00156393	0	0	0	0	0	0	-0.00260021	0	0.00156352	0	0	0
3.1	0	0	0	-0.00259997	0	0.00156401	0	0	0	0	0	0	-0.00260014	0	0.0015636	0	0	0
3.10833	0	0	0	-0.00259989	0	0.00156408	0	0	0	0	0	0	-0.00260006	0	0.00156369	0	0	0
3.11667	0	0	0	-0.00259982	0	0.00156416	0	0	0	-4.95623	16.813	3.66574	1.00373	0	-0.623571	0	-0.471354	0
3.125	0	0	0	-0.00259974	0	0.00156424	0	0	0	-10.2374	44.5317	3.89301	1.10408	0	-0.61781	0	-1.23593	0
3.13333	0	0	0	-0.00259966	0	0.00156432	0	0	0	-22.7778	129.356	3.20409	1.14909	0	-0.619139	0	-1.5554	0
3.14167	0	0	0	-0.00259958	0	0.0015644	0	0	0	-45.25	325.516	0.512582	1.15837	0	-0.619441	0	-1.21561	0
3.15	0	0	0	-0.00259951	0	0.00156447	0	0	0	-75.8782	645.914	-6.66158	1.15341	0	-0.619551	0	-0.137001	0
3.15833	0	0	0	-0.00259943	0	0.00156455	0	0	0	-111.625	982.528	-20.8894	1.1417	0	-0.619433	-0	1.54366	-0
3.16667	0	0	0	-0.00259935	0	0.00156463	0	0	0	-150.022	1171.07	-40.5655	1.12671	0	-0.618563	-0	3.46193	-0
3.175	0	0	0	-0.00259927	0	0.00156471	0	0	0	-191.965	1194.74	-57.6302	1.11105	0	-0.617088	-0	5.12489	-0
3.18333	0	0	0	-0.0025992	0	0.00156479	0	0	0	-236.447	1195.67	-62.6341	1.09495	0	-0.616058	-0	6.09909	-0
3.19167	0	0	0	-0.00259912	0	0.00156487	0	0	0	-263.094	1278.05	-54.2137	1.07498	0	-0.616192	-0	6.18833	-0
3.2	0	0	0	-0.00259904	0	0.00156494	0	0	0	-250.906	1428.65	-41.6041	1.04755	0	-0.617167	-0	5.48904	-0
3.20833	0	0	0	-0.00259897	0	0.00156502	0	0	0	-210.093	1584.46	-34.837	1.0151	0	-0.618414	-0	4.29946	-0
3.21667	0	0	0	-0.00259889	0	0.0015651	0	0	0	-161.108	1705.07	-34.4369	0.982272	0	-0.619533	-0	2.96926	-0
3.225	0	0	0	-0.00259881	0	0.00156518	0	0	0	-118.148	1785.71	-34.1982	0.952047	0	-0.620216	-0	1.79604	-0
3.23333	0	0	0	-0.00259873	0	0.00156526	0	0	0	-84.2965	1827.58	-31.594	0.924678	0	-0.620482	-0	0.99564	-0
3.24167	0	0	0	-0.00259866	0	0.00156533	0	0	0	-48.9068	1829.24	-30.2488	0.896844	0	-0.620801	-0	0.701072	-0
3.25	0	0	0	-0.00259858	0	0.00156541	0	0	0	-6.48353	1797.92	-33.0555	0.866107	0	-0.621361	-0	0.953024	-0
3.25833	0	0	0	-0.0025985	0	0.00156549	0	0	0	38.5923	1743.51	-38.3645	0.833773	0	-0.621732	-0	1.68978	-0
3.26667	0	0	0	-0.00259843	0	0.00156557	0	0	0	84.0438	1663.3	-43.8572	0.801566	0	-0.621427	-0	2.75389	-0
3.275	0	0	0	-0.00259835	0	0.00156564	0	0	0	135.277	1549.29	-49.9171	0.767342	0	-0.620481	-0	3.91332	-0
3.28333	0	0	0	-0.00259827	0	0.00156572	0	0	0	193.477	1404.37	-57.1853	0.728312	0	-0.619276	-0	4.89269	-0
3.29167	0	0	0	-0.0025982	0	0.0015658	0	0	0	241.216	1237.68	-63.1113	0.687538	0	-0.618071	-0	5.42444	-0
3.3	0	0	0	-0.00259812	0	0.00156588	0	0	0	260.435	1053.55	-63.2011	0.651526	0	-0.616941	-0	5.32423	-0
3.30833	0	0	0	-0.00259804	0	0.00156595	0	0	0	252.617	852.453	-55.4277	0.622312	0	-0.615765	-0	4.564	-0
3.31667	0	0	0	-0.00259797	0	0.00156603	0	0	0	227.823	642.335	-42.1578	0.596446	0	-0.614695	-0	3.29792	-0
3.325	0	0	0	-0.00259789	0	0.00156611	0	0	0	189.149	440.918	-27.453	0.570329	0	-0.61423	-0	1.81892	-0
3.33333	0	0	0	-0.00259782	0	0.00156618	0	0	0	137.139	269.802	-13.7909	0.545234	0	-0.613799	-0	0.465548	-0
3.34167	0	0	0	-0.00259774	0	0.00156626	0	0	0	82.275	146.477	-2.34647	0.533004	0	-0.610678	0	-0.478988	0
3.35	0	0	0	-0.00259767	0	0.00156633	0	0	0	39.5147	72.9435	5.14531	0.565655	0	-0.603365	0	-0.863256	0
3.35833	0	0	0	-0.00259759	0	0.00156641	0	0	0	15.273	34.6803	7.18656	0.656509	0	-0.597002	0	-0.70251	0
3.36667	0	0	0	-0.00259752	0	0.00156648	0	0	0	6.11649	14.7218	5.07131	0.672482	0	-0.588958	0	-0.159331	0
3.375	0	0	0	-0.00259744	0	0.00156656	0	0	0	0	0	0	-0.00259755	0	0.0015663	0	0	0
3.38333	0	0	0	-0.00259737	0	0.00156663	0	0	0	0	0	0	-0.00259747	0	0.00156638	0	0	0
3.39167	-2.29576	10.2649	3.99749	1.05181	0	-0.623339	-0	1.6501	-0	0	0	0	-0.0025974	0	0.00156646	0	0	0
3.4	0	0	0	-0.00259722	0	0.00156678	0	0	0	0	0	0	-0.00259732	0	0.00156654	0	0	0
3.40833	0	0	0	-0.00259715	0	0.00156685	0	0	0	0	0	0	-0.00259725	0	0.00156662	0	0	0
3.41667	0	0	0	-0.00259708	0	0.00156693	0	0	0	0	0	0	-0.00259717	0	0.00156669	0	0	0
3.425	0	0	0	-0.00259701	0	0.001567	0	0	0	0	0	0	-0.0025971	0	0.00156677	0	0	0
3.43333	-2.17148	10.0102	2.16055	1.05467	0	-0.605924	-0	5.24144	-0	0	0	0	-0.00259703	0	0.00156685	0	0	0
3.44167	-4.27926	19.1615	1.15847	1.13056	0	-0.616736	-0	6.68449	-0	0	0	0	-0.00259695	0	0.00156692	0	0	0
3.45	-8.32022	48.9263	-1.6049	1.14652	0	-0.624245	-0	7.99008	-0	0	0	0	-0.00259688	0	0.001567	0	0	0
3.45833	-16.7131	140.122	-3.80827	1.16776	0	-0.629416	-0	8.75623	-0	0	0	0	-0.00259681	0	0.00156708	0	0	0
3.46667	-33.7236	345.244	-2.29643	1.17625	0	-0.635009	-0	8.633	-0	0	0	0	-0.00259674	0	0.00156715	0	0	0
3.475	-65.4565	666.436	5.68791	1.17121	0	-0.639522	-0	7.47379	-0	0	0	0	-0.00259666	0	0.00156723	0	0	0
3.48333	-112.709	992.848	21.0919	1.16067	0	-0.642748	-0	5.43079	-0	0	0	0	-0.00259659	0	0.0015673	0	0	0
3.49167	-167.463	1186.27	40.6719	1.14913	0	-0.644582	-0	2.93974	-0	0	0	0	-0.00259652	0	0.00156737	0	0	0
3.5	-223.657	1255.32	56.9601	1.13595	0	-0.645067	-0	0.585712	-0	0	0	0	-0.00259645	0	0.00156745	0	0	0
3.50833	-267.939	1318.58	63.5176	1.11582	0	-0.645054	0	-1.09459	0	0	0	0	-0.00259638	0	0.00156752	0	0	0
3.51667	-272.419	1440.8	60.34	1.08577	0	-0.645301	0	-1.77834	0	0	0	0	-0.00259631	0	0.00156759	0	0	0
3.525	-235.798	1605.21	52.6717	1.05135	0	-0.64562	0	-1.41701	0	0	0	0	-0.00259624	0	0.00156766	0	0	0
3.53333	-186.628	1762.86	45.2801	1.01973	0	-0.645428	0	-0.189998	0	0	0	0	-0.00259618	0	0.00156774	0	0	0
3.54167	-142.24	1874.8	39.0454	0.991889	0	-0.644658	-0	1.59283	-0	0	0	0	-0.00259611	0	0.00156781	0	0	0
3.55	-102.101	1935.71	32.4452	0.965155	0	-0.64373	-0	3.58092	-0	0	0	0	-0.00259604	0	0.00156788	0	0	0
